<?xml version="1.0" standalone="no"?>
<svg xmlns="http://www.w3.org/2000/svg" viewBox="0 0 111 56" width="111" height="56"><g fill="#ff5576" color="#ff5576" transform="translate(33.165 0) scale(0.44) "><svg width="100.0" height="53.966" x="0.0" y="0.0" viewBox="0 0 100 53.966"><path fill="none" d="M33.154,22.1c-0.497,1.66-0.768,3.417-0.768,5.238c0,10.099,8.217,18.317,18.318,18.317  c10.1,0,18.316-8.218,18.316-18.317c0-10.101-8.216-18.319-18.316-18.319c-4.343,0-8.335,1.522-11.478,4.056"></path><path fill="none" d="M42.464,17.255c2.297-1.94,5.265-3.112,8.506-3.112c7.287,0,13.193,5.907,13.193,13.194  c0,7.286-5.906,13.193-13.193,13.193c-7.285,0-13.193-5.907-13.193-13.193c0-1.299,0.191-2.555,0.542-3.74"></path><path fill="currentColor" d="M50.97,40.53c7.287,0,13.193-5.907,13.193-13.193c0-7.288-5.906-13.194-13.193-13.194  c-3.242,0-6.209,1.172-8.506,3.112L50,26.983L38.32,23.597c-0.35,1.186-0.542,2.441-0.542,3.74  C37.777,34.623,43.686,40.53,50.97,40.53z"></path><path fill="currentColor" d="M98.35,25.7C86.324,9.366,68.458,0,49.332,0C31.055,0,13.701,8.692,1.724,23.848L0,26.029l1.648,2.238  c12.028,16.334,29.895,25.699,49.019,25.699c18.278,0,35.63-8.692,47.608-23.848L100,27.938L98.35,25.7z M50.704,45.654  c-10.101,0-18.318-8.218-18.318-18.317c0-1.821,0.271-3.578,0.768-5.238l-4.199-1.218c-0.609,2.048-0.941,4.212-0.941,6.456  c0,6.838,3.054,12.965,7.856,17.127c-10.181-3.103-19.418-9.381-26.622-18.278C16.63,17.7,25.992,11.799,36.174,9.049l0.378,0.572  l2.676,3.454c3.143-2.534,7.135-4.056,11.478-4.056c10.1,0,18.316,8.217,18.316,18.319C69.02,37.437,60.804,45.654,50.704,45.654z   M65.624,44.388c4.75-4.162,7.77-10.255,7.77-17.05c0-7.044-3.229-13.348-8.279-17.512c9.791,3.201,18.667,9.345,25.638,17.955  C83.807,35.763,75.109,41.449,65.624,44.388z"></path></svg></g><path fill="#0b0cac" fill-rule="nonzero" d="M5.23 19.82L5.23 19.82Q3.17 19.82 2.03 18.96Q0.89 18.10 0.44 16.63Q0 15.17 0 13.37L0 13.37L0 6.50Q0 4.54 0.44 3.07Q0.89 1.61 2.03 0.80Q3.17 0 5.23 0L5.23 0Q7.06 0 8.12 0.67Q9.19 1.34 9.66 2.59Q10.13 3.84 10.13 5.59L10.13 5.59L10.13 7.13L7.56 7.13L7.56 5.76Q7.56 4.68 7.45 3.85Q7.34 3.02 6.86 2.57Q6.38 2.11 5.26 2.11L5.26 2.11Q4.10 2.11 3.58 2.60Q3.05 3.10 2.89 4.00Q2.74 4.90 2.74 6.10L2.74 6.10L2.74 13.80Q2.74 15.26 2.98 16.12Q3.22 16.97 3.77 17.33Q4.32 17.69 5.26 17.69L5.26 17.69Q6.36 17.69 6.84 17.20Q7.32 16.70 7.44 15.84Q7.56 14.98 7.56 13.82L7.56 13.82L7.56 12.38L10.13 12.38L10.13 13.82Q10.13 15.60 9.70 16.96Q9.26 18.31 8.21 19.07Q7.15 19.82 5.23 19.82ZM16.32 19.80L16.32 19.80Q14.78 19.80 13.90 19.18Q13.01 18.55 12.64 17.40Q12.26 16.25 12.26 14.69L12.26 14.69L12.26 10.66Q12.26 9.10 12.64 7.94Q13.01 6.79 13.90 6.17Q14.78 5.54 16.32 5.54L16.32 5.54Q17.86 5.54 18.73 6.17Q19.61 6.79 19.98 7.94Q20.35 9.10 20.35 10.66L20.35 10.66L20.35 14.69Q20.35 16.25 19.98 17.40Q19.61 18.55 18.73 19.18Q17.86 19.80 16.32 19.80ZM16.32 17.90L16.32 17.90Q17.06 17.90 17.36 17.47Q17.66 17.04 17.72 16.33Q17.78 15.62 17.78 14.86L17.78 14.86L17.78 10.51Q17.78 9.72 17.72 9.02Q17.66 8.33 17.36 7.88Q17.06 7.44 16.32 7.44L16.32 7.44Q15.58 7.44 15.26 7.88Q14.95 8.33 14.89 9.02Q14.83 9.72 14.83 10.51L14.83 10.51L14.83 14.86Q14.83 15.62 14.89 16.33Q14.95 17.04 15.26 17.47Q15.58 17.90 16.32 17.90ZM25.27 19.61L22.70 19.61L22.70 5.74L25.27 5.74L25.27 7.10Q25.97 6.46 26.81 6Q27.65 5.54 28.66 5.54L28.66 5.54Q29.50 5.54 29.94 5.98Q30.38 6.41 30.56 7.06Q30.74 7.70 30.74 8.38L30.74 8.38L30.74 19.61L28.18 19.61L28.18 9.12Q28.18 8.38 27.96 7.97Q27.74 7.56 27.07 7.56L27.07 7.56Q26.64 7.56 26.17 7.81Q25.70 8.06 25.27 8.42L25.27 8.42L25.27 19.61ZM36.94 19.80L36.94 19.80Q35.86 19.80 35.20 19.39Q34.54 18.98 34.24 18.24Q33.94 17.50 33.94 16.49L33.94 16.49L33.94 7.44L32.47 7.44L32.47 5.74L33.94 5.74L33.94 1.68L36.50 1.68L36.50 5.74L38.74 5.74L38.74 7.44L36.50 7.44L36.50 16.32Q36.50 17.14 36.77 17.48Q37.03 17.83 37.78 17.83L37.78 17.83Q37.97 17.83 38.22 17.81Q38.47 17.78 38.71 17.76L38.71 17.76L38.71 19.66Q38.23 19.73 37.82 19.76Q37.42 19.80 36.94 19.80ZM43.37 19.61L40.80 19.61L40.80 5.74L43.37 5.74L43.37 19.61ZM43.37 3.67L40.80 3.67L40.80 0.98L43.37 0.98L43.37 3.67ZM52.10 19.61L49.73 19.61L45.38 0.17L47.93 0.17L51.00 14.50L53.93 0.17L56.40 0.17L52.10 19.61ZM67.63 21.41L67.20 23.54Q66.55 23.21 65.92 22.58Q65.28 21.96 64.72 21.22Q64.15 20.47 63.70 19.80L63.70 19.80Q63.60 19.82 63.48 19.82Q63.36 19.82 63.24 19.82L63.24 19.82Q61.27 19.82 60.10 19.06Q58.92 18.29 58.42 16.86Q57.91 15.43 57.91 13.51L57.91 13.51L57.91 6.14Q57.91 4.22 58.43 2.84Q58.94 1.46 60.11 0.73Q61.27 0 63.24 0L63.24 0Q65.21 0 66.37 0.74Q67.54 1.49 68.05 2.86Q68.57 4.22 68.57 6.14L68.57 6.14L68.57 13.54Q68.57 14.95 68.28 16.12Q67.99 17.28 67.37 18.11Q66.74 18.94 65.71 19.37L65.71 19.37Q66.00 19.73 66.34 20.12Q66.67 20.52 67.01 20.86Q67.34 21.19 67.63 21.41L67.63 21.41ZM63.24 17.69L63.24 17.69Q64.34 17.69 64.90 17.24Q65.45 16.80 65.64 16.00Q65.83 15.19 65.83 14.11L65.83 14.11L65.83 5.59Q65.83 4.51 65.64 3.73Q65.45 2.95 64.90 2.53Q64.34 2.11 63.24 2.11L63.24 2.11Q62.16 2.11 61.60 2.53Q61.03 2.95 60.84 3.73Q60.65 4.51 60.65 5.59L60.65 5.59L60.65 14.11Q60.65 15.19 60.84 16.00Q61.03 16.80 61.60 17.24Q62.16 17.69 63.24 17.69ZM72.74 19.61L70.20 19.61L74.33 0.17L76.94 0.17L81.10 19.61L78.53 19.61L77.64 14.71L73.68 14.71L72.74 19.61ZM75.65 4.01L74.04 12.77L77.28 12.77L75.65 4.01ZM90.65 19.61L83.06 19.61L83.06 0.17L90.60 0.17L90.60 2.18L85.78 2.18L85.78 8.62L89.69 8.62L89.69 10.54L85.78 10.54L85.78 17.66L90.65 17.66L90.65 19.61ZM93.96 19.61L91.54 19.61L94.66 12.31L91.61 5.74L94.06 5.74L96.10 10.13L97.90 5.74L100.42 5.74L97.25 12.62L100.46 19.61L98.02 19.61L95.83 14.90L93.96 19.61ZM104.52 24.17L101.95 24.17L101.95 5.74L104.52 5.74L104.52 6.84Q104.98 6.31 105.62 5.93Q106.27 5.54 107.16 5.54L107.16 5.54Q108.24 5.54 108.88 6.11Q109.51 6.67 109.82 7.52Q110.14 8.38 110.23 9.25Q110.33 10.13 110.33 10.75L110.33 10.75L110.33 14.11Q110.33 15.58 110.04 16.88Q109.75 18.19 109.00 19.00Q108.24 19.80 106.87 19.80L106.87 19.80Q106.13 19.80 105.55 19.43Q104.98 19.06 104.52 18.58L104.52 18.58L104.52 24.17ZM106.37 17.78L106.37 17.78Q107.04 17.78 107.33 17.29Q107.62 16.80 107.69 15.96Q107.76 15.12 107.76 14.11L107.76 14.11L107.76 10.75Q107.76 9.89 107.66 9.16Q107.57 8.42 107.26 7.99Q106.94 7.56 106.27 7.56L106.27 7.56Q105.77 7.56 105.31 7.78Q104.86 7.99 104.52 8.28L104.52 8.28L104.52 17.16Q104.88 17.42 105.34 17.60Q105.79 17.78 106.37 17.78Z" transform="translate(0, 31.746)"></path></svg>